<svg width="25" height="25" viewBox="0 0 25 25" fill="none" xmlns="http://www.w3.org/2000/svg">
<circle cx="12.5" cy="12.5" r="12" stroke="#282824"/>
<g clip-path="url(#clip0_199_673)">
<path d="M16.7428 7.19673L12.5002 11.4393L8.25752 7.19663C7.96484 6.90396 7.4896 6.90396 7.19682 7.19673C6.90415 7.48941 6.90415 7.96465 7.19682 8.25733L11.4395 12.5L7.19682 16.7427C6.90415 17.0354 6.90415 17.5106 7.19682 17.8033C7.4896 18.096 7.96484 18.096 8.25752 17.8034L12.5002 13.5607L16.7428 17.8033C17.0355 18.096 17.5108 18.096 17.8035 17.8034C18.0962 17.5106 18.0962 17.0354 17.8035 16.7426L13.5609 12.5L17.8035 8.25742C18.0962 7.96465 18.0962 7.48941 17.8035 7.19663C17.5108 6.90396 17.0355 6.90396 16.7428 7.19673Z" fill="black"/>
</g>
<defs>
<clipPath id="clip0_199_673">
<rect width="15" height="15" fill="white" transform="translate(5 5)"/>
</clipPath>
</defs>
</svg>
