<svg width="538" height="596" viewBox="0 0 538 596" fill="none" xmlns="http://www.w3.org/2000/svg">
<path fill-rule="evenodd" clip-rule="evenodd" d="M84.9391 563.435C82.8624 567.089 79.8595 570.131 76.2328 572.255C72.606 574.379 68.4836 575.509 64.2808 575.533C60.078 575.557 55.9432 574.472 52.2929 572.389C48.6426 570.306 45.6058 567.297 43.4883 563.667C14.185 511.84 -43.6674 372.221 56.6942 197.218C100.167 121.412 158.427 66.4824 229.777 34.0126C288.416 7.23905 339.887 2.91542 364.616 0.963737C370.886 0.453679 377.102 2.4552 381.896 6.52797C386.69 10.6007 389.67 16.4112 390.18 22.681C390.186 22.7587 390.192 22.8364 390.197 22.9141C390.641 29.2667 388.571 35.5391 384.433 40.3797C380.295 45.2202 374.421 48.2412 368.077 48.7916L368.012 48.797C323.314 52.5228 187.898 63.8102 97.854 220.822C9.88897 374.209 59.5782 494.784 84.9339 539.428C87.0864 543.062 88.2226 547.207 88.2235 551.431C88.2244 555.654 87.09 559.8 84.9391 563.435ZM692.78 444.936C691.802 446.694 690.604 448.321 689.216 449.778C584.617 558.407 429.23 532.255 422.796 531.123L421.441 530.74L421.244 530.691C414.691 529.047 314.246 503.859 285.488 436.049C272.221 404.633 275.851 370.513 296.484 334.536C315.673 301.075 340.025 282.97 371.299 278.869C396.771 275.451 421.723 282.467 445.858 289.252L446.16 289.337C496.501 303.451 524.183 308.701 553.044 263.866C565.713 244.177 561.362 223.974 555.476 210.564C539.359 174.17 495.943 144.55 447.137 137.022C383.94 127.144 246.124 141.368 175.14 265.144C144.828 318 134.153 376.412 144.098 433.861C152.386 481.506 175.452 528.771 207.195 563.306C266.371 627.542 397.082 662.759 398.288 663.057C401.292 663.861 404.107 665.249 406.574 667.141C409.041 669.033 411.111 671.392 412.666 674.084C414.221 676.776 415.231 679.748 415.637 682.83C416.044 685.913 415.839 689.045 415.035 692.048C415.013 692.131 414.991 692.215 414.967 692.298C413.315 698.444 409.31 703.695 403.82 706.914C398.329 710.134 391.792 711.065 385.62 709.505L385.317 709.422C376.02 706.875 239.325 669.415 171.833 596.149C97.8426 515.547 57.4149 374.705 133.832 241.454C169.154 179.862 223.695 133.818 291.521 108.181C344.179 88.405 403.592 81.5533 454.514 89.5074C519.532 99.6425 576.205 139.424 598.735 190.711C613.755 224.902 611.668 260.104 592.782 289.606C543.443 366.376 479.474 348.579 432.815 335.593C384.95 322.309 360.908 317.572 337.558 358.288C324.737 380.645 321.955 399.905 329.232 417.064C339.209 440.493 366.154 457.322 386.99 467.304C387.101 467.358 387.211 467.411 387.321 467.464C387.428 467.515 387.535 467.566 387.642 467.617C414.194 480.242 443.263 486.68 472.663 486.449C519.889 486.22 598.148 475.698 655.184 416.489C659.508 411.923 665.469 409.263 671.755 409.092C678.04 408.922 684.136 411.255 688.702 415.579C688.757 415.631 688.812 415.684 688.866 415.736C692.637 419.497 695.063 424.395 695.771 429.673C696.478 434.951 695.427 440.315 692.78 444.936ZM583.454 609.686C586.077 607.707 588.271 605.216 589.904 602.365C592.869 597.148 593.792 591.016 592.492 585.158C592.465 585.038 592.437 584.919 592.409 584.799C591.681 581.786 590.366 578.945 588.541 576.44C586.715 573.934 584.414 571.813 581.769 570.197C579.123 568.581 576.185 567.501 573.123 567.021C570.06 566.54 566.933 566.667 563.919 567.395C490.899 584.937 423.375 579.858 351.316 551.125C309.511 533.447 254.258 492.906 235.61 436.565C222.63 397.445 229.025 355.073 254.413 310.804C283.791 259.576 329.134 234.031 389.191 234.632C419.227 235.181 448.911 241.202 476.786 252.402C482.612 254.892 489.184 254.989 495.081 252.671C500.978 250.353 505.725 245.807 508.296 240.016C510.868 234.225 511.056 227.655 508.82 221.726C506.585 215.798 502.106 210.987 496.351 208.336C463.112 194.768 427.676 187.382 391.785 186.538C313.417 185.273 251.653 219.896 213.19 286.966C180.67 343.672 172.984 399.273 190.388 451.949C213.988 523.328 279.517 572.712 332.893 595.256L333.337 595.511C414.896 627.921 491.628 633.756 574.644 613.879C577.834 613.091 580.831 611.665 583.454 609.686Z" fill="#43B18A"/>
</svg>
