<svg width="25" height="25" viewBox="0 0 25 25" fill="none" xmlns="http://www.w3.org/2000/svg">
<circle cx="12.5" cy="12.5" r="12" stroke="#282824"/>
<path d="M6.3693 10.7045L11.9783 15.5122C12.1235 15.6367 12.3085 15.7052 12.4998 15.7052C12.6911 15.7052 12.8761 15.6367 13.0214 15.5122L18.6303 10.7045C18.7102 10.636 18.7759 10.5525 18.8235 10.4586C18.8711 10.3648 18.8997 10.2625 18.9078 10.1575C18.9241 9.94562 18.8555 9.73592 18.7172 9.57456C18.5789 9.4132 18.3821 9.3134 18.1702 9.29711C17.9583 9.28082 17.7486 9.34938 17.5872 9.4877L12.4998 13.8486L7.41241 9.4877C7.25105 9.34938 7.04134 9.28082 6.82943 9.29711C6.61753 9.3134 6.42076 9.4132 6.28244 9.57456C6.14412 9.73592 6.07556 9.94562 6.09185 10.1575C6.10814 10.3694 6.20794 10.5662 6.3693 10.7045Z" fill="#282824"/>
</svg>
