<svg width="25" height="25" viewBox="0 0 25 25" fill="none" xmlns="http://www.w3.org/2000/svg">
<circle cx="12.5" cy="12.5" r="12" stroke="#282824"/>
<g clip-path="url(#clip0_199_685)">
<path d="M19.25 11.75H13.25V5.74995C13.25 5.33604 12.914 5 12.5 5C12.086 5 11.75 5.33604 11.75 5.74995V11.75H5.74995C5.33604 11.75 5 12.086 5 12.5C5 12.914 5.33604 13.25 5.74995 13.25H11.75V19.25C11.75 19.664 12.086 20 12.5 20C12.914 20 13.25 19.664 13.25 19.25V13.25H19.25C19.664 13.25 20 12.914 20 12.5C20 12.086 19.664 11.75 19.25 11.75Z" fill="black"/>
</g>
<defs>
<clipPath id="clip0_199_685">
<rect width="15" height="15" fill="white" transform="translate(5 5)"/>
</clipPath>
</defs>
</svg>
