<svg width="30" height="30" viewBox="0 0 30 30" fill="none" xmlns="http://www.w3.org/2000/svg">
<path d="M14.2013 18.0578C14.1103 18.1407 14.0366 18.2408 13.9843 18.3522C13.932 18.4636 13.9022 18.5842 13.8965 18.7072C13.8909 18.8301 13.9095 18.953 13.9514 19.0687C13.9932 19.1844 14.0575 19.2908 14.1404 19.3817C15.1636 20.5269 15.7211 22.0136 15.7032 23.5492C15.7032 24.1708 13.7454 25.3125 10.547 25.3125C7.34862 25.3125 5.39074 24.17 5.39074 23.5483C5.38172 22.0245 5.93041 20.55 6.9334 19.4028C7.09999 19.2181 7.1864 18.9749 7.17363 18.7265C7.16085 18.4781 7.04994 18.245 6.86529 18.0784C6.68064 17.9118 6.43737 17.8254 6.189 17.8382C5.94064 17.851 5.70752 17.9619 5.54093 18.1465C4.22015 19.6344 3.49856 21.5596 3.51593 23.5491C3.51574 25.6237 6.53834 27.1875 10.547 27.1875C14.5556 27.1875 17.5782 25.6237 17.5782 23.5492C17.5968 21.5459 16.8645 19.6084 15.5256 18.1183C15.4427 18.0273 15.3426 17.9535 15.2311 17.9012C15.1197 17.8489 14.999 17.819 14.876 17.8134C14.753 17.8078 14.63 17.8265 14.5143 17.8684C14.3985 17.9104 14.2921 17.9747 14.2013 18.0578Z" fill="#E0E7FB"/>
<path d="M24.4317 12.4933C24.3494 12.4001 24.2493 12.3243 24.1374 12.2702C24.0254 12.2161 23.9038 12.1847 23.7797 12.1781C23.6555 12.1714 23.5313 12.1895 23.4141 12.2313C23.297 12.2731 23.1894 12.3378 23.0976 12.4216C23.0057 12.5053 22.9314 12.6066 22.879 12.7194C22.8267 12.8321 22.7972 12.9542 22.7925 13.0784C22.7878 13.2027 22.8078 13.3266 22.8514 13.4431C22.895 13.5595 22.9614 13.6661 23.0466 13.7567C24.0696 14.902 24.6271 16.3886 24.6094 17.9242C24.6094 18.5458 22.6515 19.6875 19.4531 19.6875C19.2045 19.6875 18.966 19.7863 18.7902 19.9621C18.6144 20.1379 18.5156 20.3764 18.5156 20.625C18.5156 20.8736 18.6144 21.1121 18.7902 21.2879C18.966 21.4637 19.2045 21.5625 19.4531 21.5625C23.4618 21.5625 26.4844 19.9987 26.4844 17.9242C26.5028 15.921 25.7705 13.9835 24.4317 12.4933Z" fill="#E0E7FB"/>
<path d="M10.5469 17.8125C11.474 17.8125 12.3802 17.5376 13.1511 17.0225C13.922 16.5074 14.5228 15.7754 14.8775 14.9188C15.2323 14.0623 15.3252 13.1198 15.1443 12.2105C14.9634 11.3012 14.517 10.466 13.8614 9.81043C13.2059 9.15487 12.3706 8.70843 11.4614 8.52756C10.5521 8.3467 9.60957 8.43952 8.75304 8.79431C7.89651 9.14909 7.16443 9.7499 6.64936 10.5208C6.13429 11.2916 5.85938 12.1979 5.85938 13.125C5.86084 14.3677 6.35517 15.5592 7.23393 16.4379C8.11268 17.3167 9.30412 17.811 10.5469 17.8125ZM10.5469 10.3125C11.1031 10.3125 11.6469 10.4774 12.1094 10.7865C12.5719 11.0955 12.9324 11.5348 13.1453 12.0487C13.3581 12.5626 13.4138 13.1281 13.3053 13.6737C13.1968 14.2193 12.9289 14.7204 12.5356 15.1137C12.1423 15.5071 11.6411 15.7749 11.0956 15.8835C10.55 15.992 9.98449 15.9363 9.47057 15.7234C8.95666 15.5105 8.5174 15.15 8.20836 14.6875C7.89932 14.225 7.73437 13.6813 7.73437 13.125C7.73519 12.3793 8.03177 11.6644 8.55904 11.1372C9.08631 10.6099 9.8012 10.3133 10.5469 10.3125Z" fill="#E0E7FB"/>
<path d="M19.4531 12.1875C20.3802 12.1875 21.2865 11.9126 22.0573 11.3975C22.8282 10.8824 23.429 10.1504 23.7838 9.29383C24.1386 8.4373 24.2314 7.4948 24.0505 6.58552C23.8697 5.67623 23.4232 4.841 22.7677 4.18544C22.1121 3.52988 21.2769 3.08344 20.3676 2.90257C19.4583 2.7217 18.5158 2.81453 17.6593 3.16932C16.8028 3.5241 16.0707 4.12491 15.5556 4.89577C15.0405 5.66662 14.7656 6.5729 14.7656 7.5C14.7671 8.74275 15.2614 9.93419 16.1402 10.8129C17.0189 11.6917 18.2104 12.186 19.4531 12.1875ZM19.4531 4.6875C20.0094 4.6875 20.5531 4.85245 21.0157 5.16149C21.4782 5.47053 21.8387 5.90979 22.0515 6.4237C22.2644 6.93762 22.3201 7.50312 22.2116 8.04869C22.1031 8.59426 21.8352 9.0954 21.4419 9.48874C21.0485 9.88207 20.5474 10.1499 20.0018 10.2585C19.4562 10.367 18.8907 10.3113 18.3768 10.0984C17.8629 9.88554 17.4237 9.52505 17.1146 9.06254C16.8056 8.60003 16.6406 8.05626 16.6406 7.5C16.6414 6.75433 16.938 6.03944 17.4653 5.51217C17.9926 4.9849 18.7074 4.68832 19.4531 4.6875Z" fill="#E0E7FB"/>
</svg>
