<svg width="107" height="44" viewBox="0 0 107 44" fill="none" xmlns="http://www.w3.org/2000/svg">
<path d="M15.048 35.288C12.528 35.288 10.248 34.736 8.208 33.632C6.192 32.504 4.608 30.968 3.456 29.024C2.304 27.056 1.728 24.848 1.728 22.4C1.728 19.952 2.304 17.756 3.456 15.812C4.608 13.844 6.204 12.308 8.244 11.204C10.284 10.076 12.564 9.512 15.084 9.512C17.052 9.512 18.852 9.848 20.484 10.52C22.116 11.168 23.508 12.14 24.66 13.436L22.32 15.704C20.424 13.712 18.06 12.716 15.228 12.716C13.356 12.716 11.664 13.136 10.152 13.976C8.64 14.816 7.452 15.98 6.588 17.468C5.748 18.932 5.328 20.576 5.328 22.4C5.328 24.224 5.748 25.88 6.588 27.368C7.452 28.832 8.64 29.984 10.152 30.824C11.664 31.664 13.356 32.084 15.228 32.084C18.036 32.084 20.4 31.076 22.32 29.06L24.66 31.328C23.508 32.624 22.104 33.608 20.448 34.28C18.816 34.952 17.016 35.288 15.048 35.288ZM40.6443 35.288C38.1003 35.288 35.8083 34.736 33.7683 33.632C31.7283 32.504 30.1203 30.956 28.9443 28.988C27.7923 27.02 27.2163 24.824 27.2163 22.4C27.2163 19.976 27.7923 17.78 28.9443 15.812C30.1203 13.844 31.7283 12.308 33.7683 11.204C35.8083 10.076 38.1003 9.512 40.6443 9.512C43.1643 9.512 45.4443 10.076 47.4843 11.204C49.5243 12.308 51.1203 13.844 52.2723 15.812C53.4243 17.756 54.0003 19.952 54.0003 22.4C54.0003 24.848 53.4243 27.056 52.2723 29.024C51.1203 30.968 49.5243 32.504 47.4843 33.632C45.4443 34.736 43.1643 35.288 40.6443 35.288ZM40.6443 32.084C42.4923 32.084 44.1483 31.664 45.6123 30.824C47.1003 29.984 48.2643 28.832 49.1043 27.368C49.9683 25.88 50.4003 24.224 50.4003 22.4C50.4003 20.576 49.9683 18.932 49.1043 17.468C48.2643 15.98 47.1003 14.816 45.6123 13.976C44.1483 13.136 42.4923 12.716 40.6443 12.716C38.7963 12.716 37.1163 13.136 35.6043 13.976C34.1163 14.816 32.9403 15.98 32.0763 17.468C31.2363 18.932 30.8163 20.576 30.8163 22.4C30.8163 24.224 31.2363 25.88 32.0763 27.368C32.9403 28.832 34.1163 29.984 35.6043 30.824C37.1163 31.664 38.7963 32.084 40.6443 32.084ZM59.5027 9.8H63.1027V31.868H76.7467V35H59.5027V9.8ZM91.7966 35.288C89.2526 35.288 86.9606 34.736 84.9206 33.632C82.8806 32.504 81.2726 30.956 80.0966 28.988C78.9446 27.02 78.3686 24.824 78.3686 22.4C78.3686 19.976 78.9446 17.78 80.0966 15.812C81.2726 13.844 82.8806 12.308 84.9206 11.204C86.9606 10.076 89.2526 9.512 91.7966 9.512C94.3166 9.512 96.5966 10.076 98.6366 11.204C100.677 12.308 102.273 13.844 103.425 15.812C104.577 17.756 105.153 19.952 105.153 22.4C105.153 24.848 104.577 27.056 103.425 29.024C102.273 30.968 100.677 32.504 98.6366 33.632C96.5966 34.736 94.3166 35.288 91.7966 35.288ZM91.7966 32.084C93.6446 32.084 95.3006 31.664 96.7646 30.824C98.2526 29.984 99.4166 28.832 100.257 27.368C101.121 25.88 101.553 24.224 101.553 22.4C101.553 20.576 101.121 18.932 100.257 17.468C99.4166 15.98 98.2526 14.816 96.7646 13.976C95.3006 13.136 93.6446 12.716 91.7966 12.716C89.9486 12.716 88.2686 13.136 86.7566 13.976C85.2686 14.816 84.0926 15.98 83.2286 17.468C82.3886 18.932 81.9686 20.576 81.9686 22.4C81.9686 24.224 82.3886 25.88 83.2286 27.368C84.0926 28.832 85.2686 29.984 86.7566 30.824C88.2686 31.664 89.9486 32.084 91.7966 32.084Z" fill="#43AC87"/>
<circle cx="91.5" cy="22.5" r="4.5" fill="#43AC87"/>
<path d="M80 35C92.2931 46.25 103 35 103 35" stroke="#43AC87" stroke-width="3"/>
</svg>
