<svg width="30" height="30" viewBox="0 0 30 30" fill="none" xmlns="http://www.w3.org/2000/svg">
<g clip-path="url(#clip0_178_107)">
<path d="M24.7831 16.0595C24.7831 15.5656 24.3826 15.1651 23.8884 15.1651C23.3943 15.1651 22.9937 15.5656 22.9937 16.0595C22.9937 20.4358 19.4337 23.9958 15.0575 23.9958C10.6815 23.9958 7.12143 20.4358 7.12143 16.0595C7.12143 15.5656 6.72089 15.1651 6.22673 15.1651C5.73258 15.1651 5.33203 15.5656 5.33203 16.0595C5.33203 21.1208 9.218 25.2903 14.1628 25.7435V28.1521H10.8426C10.3484 28.1521 9.9479 28.5526 9.9479 29.0468C9.9479 29.5409 10.3484 29.9415 10.8426 29.9415H19.2726C19.7665 29.9415 20.167 29.5409 20.167 29.0468C20.167 28.5526 19.7665 28.1521 19.2726 28.1521H15.9522V25.7435C20.8972 25.2906 24.7831 21.1208 24.7831 16.0595Z" fill="#6D6D6D"/>
<path d="M15.0576 21.7882C18.2164 21.7882 20.7862 19.2184 20.7862 16.0595V5.66988C20.7862 2.5113 18.2164 -0.0585938 15.0576 -0.0585938C11.899 -0.0585938 9.3291 2.5113 9.3291 5.66988V16.0595C9.3291 19.2184 11.899 21.7882 15.0576 21.7882ZM11.1183 5.66988C11.1183 3.49778 12.8855 1.73081 15.0576 1.73081C17.2297 1.73081 18.9968 3.49778 18.9968 5.66988V16.0595C18.9968 18.2316 17.2297 19.9988 15.0576 19.9988C12.8855 19.9988 11.1183 18.2316 11.1183 16.0595V5.66988Z" fill="#6D6D6D"/>
</g>
<defs>
<clipPath id="clip0_178_107">
<rect width="30" height="30" fill="white"/>
</clipPath>
</defs>
</svg>
