<svg width="30" height="30" viewBox="0 0 30 30" fill="none" xmlns="http://www.w3.org/2000/svg">
<path d="M14.9475 3.81211C15.2734 3.81211 15.5376 3.54791 15.5376 3.22201V0.590098C15.5376 0.264199 15.2734 0 14.9475 0C14.6216 0 14.3574 0.264199 14.3574 0.590098V3.22201C14.3575 3.54791 14.6217 3.81211 14.9475 3.81211Z" fill="#E0E7FB"/>
<path d="M29.3722 20.2726L28.3298 19.233C27.9589 18.8627 27.4647 18.6587 26.9381 18.6587C26.6013 18.6587 26.2781 18.7424 25.9916 18.8994L24.0272 16.9373L24.1229 16.8418C24.9198 16.0433 24.9195 14.7457 24.1228 13.9499C23.8381 13.6646 23.4828 13.4745 23.0956 13.3944C23.1489 13.2104 23.177 13.0176 23.177 12.8203C23.177 12.2722 22.9641 11.7582 22.5786 11.3743C22.2939 11.0891 21.9387 10.8989 21.5514 10.8189C21.6047 10.6348 21.6328 10.4421 21.6328 10.2448C21.6328 9.69656 21.4199 9.18264 21.0338 8.7982C20.7422 8.50699 20.3838 8.32266 20.0075 8.2442C20.2088 7.55004 20.0368 6.76904 19.4907 6.22201C19.0361 5.76938 18.4193 5.57484 17.8249 5.63789L13.9322 4.90107C13.3385 4.78846 12.5971 4.71398 12.1291 5.14084C12.0996 5.16779 12.0695 5.19879 12.0398 5.2333C11.3142 4.96881 10.4679 5.12631 9.88681 5.70674C9.50132 6.09176 9.28898 6.60551 9.28898 7.15336C9.28898 7.3507 9.31693 7.54342 9.37019 7.72752C8.98336 7.8075 8.62857 7.99746 8.3448 8.28176C7.95855 8.66643 7.74556 9.17959 7.74515 9.7268C7.74498 9.92461 7.77304 10.118 7.8266 10.3025C7.43959 10.3823 7.08457 10.572 6.79992 10.8563C6.41367 11.2421 6.20097 11.7561 6.20097 12.3037C6.20097 12.7231 6.32619 13.1227 6.55822 13.4602C6.26525 13.5595 5.99689 13.7248 5.77218 13.9492C4.97472 14.7457 4.97443 16.0433 5.77271 16.843L5.86804 16.9379L3.9034 18.899C3.17326 18.5552 2.27367 18.684 1.67115 19.2858L0.628066 20.3259C0.257051 20.6965 0.052793 21.1908 0.0527344 21.7177C0.0527344 22.2447 0.257051 22.7391 0.628066 23.1097L1.92984 24.4099C2.16041 24.6402 2.53406 24.64 2.76433 24.4094C2.99467 24.1788 2.99443 23.8052 2.76387 23.5749L1.46209 22.2747C1.31432 22.1271 1.23293 21.9293 1.23293 21.7178C1.23293 21.5063 1.31432 21.3086 1.46174 21.1613L2.50488 20.1211C2.76551 19.8608 3.16441 19.822 3.46734 20.0031C3.48867 20.0351 3.51334 20.0656 3.54158 20.0939C3.59215 20.1446 3.64986 20.1834 3.71115 20.2119L9.69316 26.1851C9.72158 26.247 9.7606 26.3053 9.81152 26.3563C9.86109 26.4059 9.91763 26.4443 9.97763 26.4725C10.1041 26.6156 10.174 26.7983 10.174 26.9931C10.174 27.2047 10.0927 27.4024 9.94488 27.55L8.90279 28.5909C8.59488 28.8974 8.09402 28.8974 7.78705 28.5918L6.48527 27.2899C6.25482 27.0595 5.88123 27.0595 5.65078 27.2899C5.42033 27.5204 5.42033 27.894 5.65078 28.1244L6.95349 29.4272C7.33693 29.8091 7.84049 29.9999 8.34427 29.9999C8.84818 29.9999 9.35232 29.8088 9.73623 29.4266L10.779 28.3851C11.15 28.0145 11.3543 27.5202 11.3543 26.9931C11.3543 26.617 11.2497 26.2579 11.0552 25.9481L13.2663 23.7397C13.2687 23.7373 13.271 23.7349 13.2734 23.7325C13.5266 23.4708 14.2317 23.5198 14.9135 23.5671C15.398 23.6008 15.9381 23.6382 16.4658 23.5774L18.8871 25.9959C18.7302 26.2819 18.6465 26.6047 18.6465 26.9409C18.6465 27.4674 18.8508 27.9614 19.2218 28.332L20.2646 29.3735C20.6354 29.7439 21.1297 29.9479 21.6563 29.9479C22.1829 29.9479 22.6771 29.7439 23.048 29.3735L29.3726 23.0565C29.7436 22.686 29.948 22.1917 29.948 21.6647C29.9479 21.1378 29.7436 20.6435 29.3722 20.2726ZM13.7125 6.06064L16.2722 6.54516L14.7401 8.07674C14.5031 7.96283 14.1782 7.75037 13.8218 7.40947C13.3341 6.94283 12.9851 6.40406 12.9534 6.06803C12.9533 6.06785 12.9533 6.06768 12.9533 6.0675C12.9533 6.06744 12.9533 6.06738 12.9533 6.06732C12.951 6.04318 12.9504 6.02391 12.9507 6.0092C13.0278 5.99045 13.2328 5.96965 13.7125 6.06064ZM10.7208 6.54176C11.0197 6.24311 11.4841 6.20865 11.8219 6.4374C12.0134 7.24002 12.698 7.96746 13.006 8.26219C13.2343 8.48062 13.9668 9.13553 14.7061 9.31553C14.8062 9.45891 14.8606 9.62982 14.8606 9.81018C14.8606 10.0425 14.7712 10.2597 14.6084 10.4224C14.446 10.585 14.2285 10.6746 13.9958 10.6746C13.763 10.6746 13.5454 10.585 13.3823 10.4216L13.3822 10.4215L13.3819 10.4213L10.7207 7.76484C10.5585 7.60283 10.4691 7.38563 10.4691 7.15336C10.4692 6.92104 10.5585 6.70383 10.7208 6.54176ZM9.17882 9.11678C9.34119 8.95418 9.55851 8.86459 9.79089 8.86459C10.0236 8.86459 10.2416 8.95436 10.405 9.1176L12.5479 11.2562C12.8853 11.5942 12.8853 12.1441 12.5491 12.4809C12.3858 12.6435 12.1675 12.7331 11.9344 12.7331C11.7012 12.7331 11.4829 12.6435 11.3204 12.4816L11.3203 12.4816L9.69462 10.8563C9.69211 10.8537 9.68935 10.8514 9.68677 10.8488L9.17818 10.3404C9.015 10.1774 8.92517 9.95982 8.92535 9.72768C8.92558 9.49629 9.01511 9.27979 9.17882 9.11678ZM7.63394 11.6913C7.79642 11.529 8.01422 11.4397 8.2473 11.4397C8.47845 11.4397 8.69437 11.5277 8.85615 11.6872L10.4868 13.3171C10.6494 13.479 10.739 13.696 10.739 13.928C10.739 14.16 10.6494 14.377 10.4862 14.5396C10.3237 14.7018 10.1062 14.7911 9.87351 14.7911C9.64048 14.7911 9.42222 14.7015 9.25957 14.5396L8.66841 13.9491C8.6683 13.9489 8.66812 13.9488 8.668 13.9487L7.634 12.9159C7.47099 12.7531 7.38123 12.5356 7.38123 12.3036C7.38123 12.0716 7.47099 11.854 7.63394 11.6913ZM6.60621 14.7842C6.76939 14.6212 6.98748 14.5314 7.22027 14.5314C7.453 14.5314 7.67103 14.6211 7.83416 14.784L8.42613 15.3753C8.58879 15.5372 8.67832 15.7542 8.67832 15.9862C8.67832 16.2183 8.58873 16.4352 8.4249 16.5984C8.26254 16.761 8.04498 16.8506 7.81224 16.8506C7.57945 16.8506 7.36189 16.7611 7.19836 16.5973L7.12424 16.5234C7.12324 16.5224 7.12248 16.5214 7.12154 16.5204C7.12043 16.5194 7.11925 16.5185 7.11814 16.5174L6.60679 16.008C6.26935 15.6699 6.26906 15.1209 6.60621 14.7842ZM18.6316 21.4907C18.4013 21.2601 18.0276 21.2599 17.7971 21.4902L17.2721 22.0146C16.7733 22.5134 15.8693 22.4506 14.9952 22.39C14.0459 22.324 13.0643 22.2559 12.4291 22.908L10.2555 25.0789L4.82021 19.6516L6.74373 17.7315C7.06166 17.9264 7.42851 18.0309 7.81236 18.0309C8.36074 18.0309 8.87496 17.8183 9.25904 17.4335C9.6457 17.0484 9.85869 16.5345 9.85869 15.9863C9.85869 15.9812 9.85834 15.9762 9.85834 15.9711C9.86343 15.9711 9.86853 15.9714 9.87363 15.9714C10.4212 15.9714 10.9351 15.7595 11.3197 15.3754C11.7063 14.9903 11.9193 14.4763 11.9193 13.9281C11.9193 13.923 11.919 13.918 11.919 13.9129C11.9241 13.9129 11.9293 13.9133 11.9345 13.9133C12.4819 13.9133 12.996 13.7016 13.3832 13.316C13.7852 12.9134 13.984 12.3833 13.9802 11.8544C13.9854 11.8545 13.9907 11.8547 13.996 11.8547C14.5444 11.8547 15.0585 11.6422 15.4432 11.2568C15.8287 10.8718 16.041 10.358 16.041 9.81018C16.041 9.42703 15.9368 9.06076 15.7426 8.74348L17.4285 7.05826C17.5542 6.93316 17.7091 6.85465 17.8714 6.82225C17.889 6.82037 17.9064 6.81756 17.9235 6.81416C18.184 6.77824 18.4576 6.85863 18.6568 7.05703C18.9943 7.39506 18.9943 7.94502 18.6581 8.28182L18.1446 8.79316C18.1429 8.79486 18.1411 8.79639 18.1394 8.79809L17.548 9.38848C17.3174 9.61875 17.3171 9.9924 17.5475 10.223C17.7779 10.4536 18.1515 10.4538 18.382 10.2235L18.8975 9.70869C18.8976 9.70857 18.8977 9.70846 18.8978 9.70834L18.9758 9.6307C19.3141 9.29543 19.8623 9.29613 20.2004 9.63369C20.363 9.79564 20.4526 10.0126 20.4526 10.2446C20.4526 10.4766 20.363 10.6936 20.1991 10.8568L19.6827 11.3743C19.6826 11.3743 19.6826 11.3744 19.6825 11.3745L19.0912 11.9634C18.8603 12.1934 18.8595 12.5671 19.0895 12.7979C19.3195 13.0288 19.6931 13.0296 19.924 12.7996L20.518 12.208C20.6804 12.0454 20.8979 11.9558 21.1307 11.9558C21.3634 11.9558 21.5811 12.0454 21.7446 12.2092C21.9073 12.3712 21.9968 12.5882 21.9968 12.8202C21.9968 13.0522 21.9073 13.2691 21.7437 13.432L20.7142 14.4619C20.4838 14.6924 20.4838 15.066 20.7143 15.2964C20.8295 15.4116 20.9805 15.4692 21.1315 15.4692C21.2825 15.4692 21.4336 15.4115 21.5488 15.2963L22.0533 14.7915C22.0562 14.7888 22.0593 14.7864 22.0622 14.7835C22.2245 14.6208 22.4421 14.5313 22.6748 14.5313C22.9076 14.5313 23.1252 14.6208 23.2881 14.7841C23.6252 15.1208 23.6249 15.6698 23.2881 16.0072L22.7751 16.5196C22.775 16.5198 22.7747 16.52 22.7746 16.5202C22.7744 16.5203 22.7742 16.5206 22.774 16.5207L21.9598 17.334C21.7292 17.5643 21.729 17.9379 21.9593 18.1685C22.0745 18.2839 22.2257 18.3416 22.3768 18.3416C22.5277 18.3416 22.6786 18.2841 22.7938 18.169L23.1921 17.7712L25.1009 19.6778L19.666 25.1061L17.7187 23.1611C17.8545 23.0738 17.9844 22.9712 18.1063 22.8492L18.631 22.3252C18.8617 22.0949 18.862 21.7213 18.6316 21.4907ZM28.5385 22.2215L22.2139 28.5385C22.0659 28.6863 21.8679 28.7677 21.6562 28.7677C21.4446 28.7677 21.2466 28.6863 21.0985 28.5384L20.0558 27.4969C19.908 27.3494 19.8266 27.1519 19.8266 26.9409C19.8266 26.73 19.908 26.5325 20.0558 26.3849L26.3804 20.068C26.5284 19.9201 26.7264 19.8387 26.9381 19.8387C27.1498 19.8387 27.3478 19.9201 27.4962 20.0683L28.5386 21.1078C28.6864 21.2554 28.7678 21.4531 28.7678 21.6646C28.7677 21.8762 28.6863 22.074 28.5385 22.2215Z" fill="#E0E7FB"/>
<path d="M7.11161 3.31465C7.22681 3.42961 7.37763 3.48703 7.52845 3.48703C7.67962 3.48703 7.83085 3.42926 7.94611 3.31377C8.17632 3.08309 8.17597 2.70949 7.94529 2.47928L5.79501 0.333281C5.56438 0.103066 5.19073 0.103359 4.96051 0.334101C4.7303 0.564784 4.73065 0.938378 4.96133 1.16859L7.11161 3.31465Z" fill="#E0E7FB"/>
<path d="M22.3665 3.48703C22.5173 3.48703 22.6683 3.42949 22.7835 3.31447L24.9321 1.16842C25.1627 0.938145 25.1629 0.564492 24.9326 0.333926C24.7023 0.103359 24.3287 0.103125 24.0981 0.333457L21.9494 2.47951C21.7189 2.70979 21.7186 3.08344 21.949 3.31401C22.0642 3.42938 22.2153 3.48703 22.3665 3.48703Z" fill="#E0E7FB"/>
<path d="M3.681 25.383C3.45255 25.6154 3.45571 25.9891 3.68815 26.2175L3.68985 26.2192C3.80452 26.3319 3.95341 26.3881 4.10223 26.3881C4.25499 26.3881 4.40774 26.3289 4.52347 26.2112C4.75192 25.9788 4.74788 25.6044 4.5155 25.3759C4.28317 25.1474 3.90958 25.1507 3.681 25.383Z" fill="#E0E7FB"/>
<path d="M20.075 20.6407C20.1648 20.6407 20.2558 20.6202 20.3413 20.5771C20.6323 20.4304 20.7492 20.0755 20.6024 19.7845C20.4557 19.4936 20.1008 19.3766 19.8099 19.5234L19.8066 19.525C19.5156 19.6718 19.4003 20.0258 19.5471 20.3168C19.6507 20.5224 19.859 20.6407 20.075 20.6407Z" fill="#E0E7FB"/>
</svg>
